<?xml version="1.0" standalone="no"?>
<!DOCTYPE svg PUBLIC "-//W3C//DTD SVG 20010904//EN"
 "http://www.w3.org/TR/2001/REC-SVG-20010904/DTD/svg10.dtd">
<svg version="1.0" xmlns="http://www.w3.org/2000/svg"
 width="558.000000pt" height="558.000000pt" viewBox="0 0 558.000000 558.000000"
 preserveAspectRatio="xMidYMid meet">
<metadata>
Created by potrace 1.11, written by Peter Selinger 2001-2013
</metadata>
<g transform="translate(0.000000,558.000000) scale(0.100000,-0.100000)"
fill="#83B5B2" stroke="none">
<path d="M2625 4954 c-16 -2 -72 -9 -124 -15 -204 -24 -455 -101 -666 -204
-644 -315 -1095 -939 -1196 -1655 -18 -124 -18 -466 0 -590 18 -125 61 -300
106 -429 266 -760 949 -1318 1755 -1432 124 -18 466 -18 590 0 806 114 1489
672 1755 1432 88 252 120 443 120 724 0 220 -12 329 -56 505 -123 502 -405
932 -814 1237 -283 212 -620 353 -973 409 -93 14 -434 27 -497 18z m277 -732
c2 -5 33 -23 70 -41 37 -17 73 -37 80 -44 35 -34 107 -85 143 -101 22 -11 49
-24 60 -29 11 -6 36 -14 55 -18 124 -27 161 -38 173 -47 7 -6 30 -11 52 -11
40 0 113 -23 171 -53 36 -20 129 -118 191 -202 37 -49 43 -65 43 -106 0 -26
-7 -61 -15 -76 -8 -16 -15 -39 -15 -51 0 -19 -27 -81 -41 -93 -3 -3 -21 -27
-39 -55 -19 -27 -56 -74 -83 -102 -42 -45 -47 -53 -29 -53 11 0 23 4 26 9 7
10 70 21 162 26 61 4 129 -8 197 -34 51 -20 109 -77 133 -130 10 -23 21 -41
26 -41 10 0 11 -77 0 -82 -4 -1 -25 -55 -45 -118 l-38 -115 3 -225 c3 -220 2
-226 -21 -274 -28 -57 -114 -144 -150 -153 -14 -3 -32 -10 -38 -16 -21 -16
-207 -10 -242 7 -33 17 -71 21 -71 8 0 -5 12 -27 28 -48 50 -72 64 -114 70
-211 l5 -91 -53 -56 c-87 -92 -152 -136 -212 -146 -99 -15 -167 -31 -195 -45
-16 -8 -34 -15 -41 -15 -7 0 -31 -11 -53 -25 -22 -14 -50 -30 -62 -36 -12 -5
-35 -18 -52 -28 -53 -34 -166 -91 -181 -91 -8 0 -14 -4 -14 -10 0 -5 -9 -10
-20 -10 -11 0 -20 5 -20 10 0 6 -9 10 -20 10 -11 0 -20 -4 -20 -10 0 -5 -11
-10 -25 -10 -14 0 -25 4 -25 8 0 5 -22 18 -48 29 -54 24 -103 74 -129 131 -38
86 -52 140 -53 197 -1 91 -19 136 -35 86 -8 -27 -116 -136 -156 -157 -93 -50
-182 -52 -254 -6 -49 31 -151 145 -220 247 -72 105 -129 172 -193 225 -63 53
-127 117 -176 180 -32 40 -36 51 -36 106 0 66 18 114 67 175 45 57 142 137
174 144 47 11 33 22 -35 30 -36 3 -70 13 -77 21 -6 8 -24 14 -40 14 -15 0 -31
5 -34 10 -3 6 -14 10 -24 10 -10 0 -28 9 -41 20 -13 11 -26 20 -30 20 -14 0
-95 86 -109 116 -7 16 -20 43 -28 61 -11 22 -14 53 -11 110 6 112 50 197 185
358 19 22 37 45 41 50 4 6 31 40 60 76 28 37 52 71 52 77 0 5 7 15 15 22 8 7
15 23 15 35 0 12 7 28 15 35 8 7 15 23 15 37 0 38 40 145 68 184 32 43 119
120 172 154 41 26 132 35 145 15 3 -5 15 -10 26 -10 11 0 51 -16 90 -35 84
-43 184 -140 249 -243 25 -39 48 -71 52 -72 3 0 4 34 1 75 -4 51 -2 79 6 89 7
8 15 41 17 73 6 56 12 75 51 157 24 52 101 128 152 150 22 11 41 23 41 28 0
11 147 11 152 0z"/>
<path d="M2727 3980 c-13 -11 -36 -48 -50 -82 -43 -110 -33 -312 32 -610 18
-84 71 -231 114 -317 56 -112 85 -121 212 -66 17 7 59 20 95 30 36 9 72 21 80
25 89 51 252 156 280 181 19 17 53 47 75 66 86 77 165 209 165 276 0 37 -22
115 -42 146 -12 21 -101 91 -115 91 -3 0 -14 6 -22 13 -17 15 -113 47 -140 47
-9 0 -27 6 -41 13 -15 8 -55 17 -89 20 -35 4 -69 11 -75 15 -6 5 -40 19 -76
32 -36 13 -83 35 -105 49 -120 77 -155 91 -216 91 -41 0 -63 -5 -82 -20z"/>
<path d="M2000 3813 c-54 -22 -97 -80 -116 -156 -3 -15 -10 -30 -15 -33 -5 -3
-9 -14 -9 -24 0 -34 -65 -145 -112 -193 -49 -49 -170 -209 -194 -257 -43 -85
-56 -162 -39 -233 7 -32 25 -73 38 -90 28 -37 139 -97 179 -97 15 0 39 -5 55
-11 70 -28 447 -16 511 16 18 9 63 22 100 27 37 6 81 17 99 24 17 8 38 14 46
14 19 0 57 77 57 116 -1 16 -7 47 -15 69 -8 22 -15 49 -15 60 0 11 -7 33 -15
49 -8 15 -15 35 -15 43 0 8 -6 29 -14 46 -7 18 -24 57 -36 87 -84 208 -242
445 -337 507 -51 33 -121 49 -153 36z"/>
<path d="M3775 3006 c-16 -8 -57 -22 -90 -31 -60 -18 -158 -59 -227 -95 -20
-11 -41 -20 -47 -20 -16 0 -161 -90 -249 -155 -89 -65 -95 -79 -66 -141 9 -18
26 -43 38 -56 37 -38 120 -103 128 -101 5 2 8 -5 8 -15 0 -14 105 -95 145
-111 6 -2 26 -16 45 -30 34 -25 69 -44 140 -75 36 -15 158 -34 222 -34 54 0
136 53 167 108 27 49 27 61 20 385 -2 98 1 126 15 153 10 19 20 64 23 100 5
62 3 70 -20 97 -24 30 -27 31 -123 32 -65 2 -109 -2 -129 -11z"/>
<path d="M2729 2724 c-7 -8 -29 -24 -48 -34 l-36 -19 32 -11 c25 -9 35 -21 47
-58 9 -25 16 -67 16 -94 0 -26 5 -48 10 -48 6 0 10 3 10 8 0 4 11 20 25 35 20
21 35 27 68 27 23 0 55 -7 71 -15 40 -21 42 -19 11 21 -37 48 -43 102 -16 133
26 30 21 36 -18 23 -37 -13 -99 1 -123 29 -20 23 -31 24 -49 3z"/>
<path d="M2302 2543 c-4 -2 -54 -9 -112 -18 -172 -24 -262 -44 -335 -75 -11
-5 -41 -18 -67 -29 -26 -11 -54 -26 -63 -33 -43 -36 -75 -75 -77 -93 -5 -69
14 -102 96 -162 71 -52 146 -143 224 -273 31 -52 72 -109 90 -127 48 -49 116
-76 188 -77 107 0 166 56 249 234 7 14 20 52 30 85 10 33 22 65 27 71 5 7 11
36 15 65 3 30 12 66 19 81 10 19 14 70 14 172 0 180 7 173 -168 178 -67 1
-125 2 -130 1z"/>
<path d="M2858 2353 c-35 -18 -72 -66 -98 -129 -12 -27 -26 -58 -31 -69 -9
-19 -14 -49 -39 -225 -6 -41 -16 -97 -21 -125 -13 -58 -7 -178 11 -249 17 -69
78 -128 146 -141 75 -16 153 2 259 59 50 27 92 52 95 56 10 13 173 93 195 95
142 15 145 16 186 55 39 37 40 40 34 87 -4 26 -17 68 -29 93 -27 58 -205 237
-306 310 -77 55 -166 110 -176 110 -6 0 -17 7 -24 15 -7 8 -20 15 -29 15 -10
0 -44 14 -76 30 -66 34 -60 33 -97 13z"/>
</g>
</svg>
